<svg xmlns="http://www.w3.org/2000/svg" viewBox="0 0 149.4 164.72"><defs><style>.cls-1{fill:#007bc5;}</style></defs><title>logo</title><g id="Layer_2" data-name="Layer 2"><g id="Layer_1-2" data-name="Layer 1"><g id="_5rwH1I.tif" data-name="5rwH1I.tif"><path class="cls-1" d="M99.68,39.55c4.93-2.78,9.08-5.28,13.38-7.51a24.67,24.67,0,0,1,36.31,23.06c-.39,8.76-4.65,15.5-12.15,20.09-3.94,2.41-8,4.64-12.41,7.2a29.6,29.6,0,0,0,2.39,1.82c3.65,2.2,7.42,4.21,11,6.56a24.7,24.7,0,0,1-24.58,42.73c-4.64-2.31-9.06-5.07-14.17-8,0,5,0,9.35,0,13.69-.11,14.46-11.13,25.69-25,25.5s-24.54-11.28-24.57-25.57c0-4.36,0-8.71,0-13.85-4.56,2.6-8.49,5-12.51,7.13-15.65,8.46-33.4.1-36.9-17.33-1.85-9.22,2.65-19.48,11.11-24.85,4.19-2.66,8.55-5.06,13.45-7.95-4.61-2.72-8.79-5.08-12.85-7.63a24.72,24.72,0,0,1,24.55-42.9C41,34,45.11,36.54,50.1,39.39c0-5.22,0-9.88.06-14.52A23.91,23.91,0,0,1,57.68,7.2C65.44-.11,74.56-1.92,84.36,2.07s14.73,11.69,15.32,22.1C100,29,99.7,33.91,99.68,39.55Zm0,23.95c2-1.12,3.4-1.84,4.75-2.61,5.92-3.39,11.83-6.8,17.76-10.17,2.18-1.23,4.39-1.22,5.75,1.07s.49,4.45-1.85,5.86l-1.26.74c-8.46,4.84-16.9,9.71-25.38,14.52-5.15,2.93-7.72,1.37-7.71-4.61,0-14.27.2-28.54.07-42.81-.09-9.95-7.21-17.17-16.59-17.3-9.54-.13-16.8,7.1-17.1,17.18-.16,5.36-.11,10.73,0,16.1,0,1,.3,2.43,1,2.87,3.62,2.37,7.41,4.48,11.79,7.08,0-6.56,0-12.27.06-18,0-2.8-.05-5.62.15-8.41.17-2.26,1.24-4,3.85-4s3.65,1.62,4,3.91A21.37,21.37,0,0,1,79,27.84c0,9.27,0,18.54-.09,27.81,0,6.74-2.57,8.17-8.34,4.82-12.22-7.09-24.4-14.27-36.71-21.2C25.23,34.42,15.3,37,10.57,45S8.38,62.93,16.83,68.18c4.65,2.89,9.43,5.59,14.23,8.24a4.27,4.27,0,0,0,3.32.48c3.77-1.92,7.38-4.14,11.5-6.52-2.22-1.33-4-2.4-5.7-3.42Q32,62.16,23.75,57.4c-2.34-1.36-3.4-3.37-2-5.81s3.72-2.35,6-1.05c.32.18.65.35,1,.53Q41.37,58.42,54,65.78c5.4,3.17,5.37,6.09-.05,9.2-12.47,7.16-25,14.17-37.38,21.51-8.41,5-10.89,14.72-6.28,22.81S24.55,130,33.12,125.55c5.07-2.66,10-5.61,14.91-8.52.74-.44,1.67-1.36,1.7-2.08.17-4.3.11-8.61.12-13.59-1.95,1.08-3.21,1.76-4.45,2.47L27.33,114.18c-2.23,1.28-4.39,1.2-5.71-1.09s-.55-4.46,1.84-5.86l1.26-.74c8.46-4.84,16.9-9.71,25.38-14.52,5.2-3,7.73-1.44,7.71,4.59,0,14.15-.17,28.3-.08,42.45.06,10.19,7.13,17.51,16.66,17.62s16.85-7.25,17.06-17.6q.15-7.68,0-15.37c0-1.1-.28-2.71-1-3.2-3.6-2.39-7.4-4.48-11.75-7,0,7.42,0,14-.08,20.56,0,2.31.16,4.74-.51,6.87a4.75,4.75,0,0,1-3.52,2.75c-1.23,0-2.74-1.52-3.6-2.75-.61-.86-.43-2.35-.43-3.56q0-14.09.08-28.18c0-6.69,2.62-8.11,8.4-4.75,12,7,24,14,36.05,20.88,9.12,5.18,19,2.82,23.87-5.46s2-18.05-6.95-23.48c-4.48-2.71-9-5.34-13.6-7.86a4.22,4.22,0,0,0-3.31-.43c-3.78,1.92-7.4,4.14-11.54,6.51,7.53,4.39,14.54,8.52,21.61,12.57,2.54,1.46,4.17,3.4,2.58,6.22s-4.14,2.15-6.61.7c-8.4-4.94-16.85-9.79-25.27-14.7-5.87-3.43-5.86-6.24,0-9.6,12.26-7,24.6-13.93,36.77-21.1,8.6-5.07,11.25-14.85,6.61-23s-14.49-10.76-23.17-6.13c-4.94,2.64-9.77,5.49-14.56,8.4a4.07,4.07,0,0,0-1.76,2.77C99.55,54.62,99.65,58.64,99.64,63.49Z"/></g></g></g></svg>